REM MD5 14a497a4f58c2ee64c3b96e4980bad69
FILE "OPSM Best PS One Games Ever (Europe, Australia).bin" BINARY
  TRACK 01 MODE2/2352
    INDEX 01 00:00:00
  TRACK 02 AUDIO
    INDEX 00 35:35:38
    INDEX 01 35:37:38
  TRACK 03 AUDIO
    INDEX 00 36:07:27
    INDEX 01 36:09:27
REM LEADOUT 39:10:60
